<?xml version="1.0" encoding="UTF-8" standalone="no" ?>
<!DOCTYPE svg PUBLIC "-//W3C//DTD SVG 1.1//EN" "http://www.w3.org/Graphics/SVG/1.1/DTD/svg11.dtd">
<svg xmlns="http://www.w3.org/2000/svg" xmlns:xlink="http://www.w3.org/1999/xlink" version="1.1" width="1200" height="300" viewBox="0 0 1200 300" xml:space="preserve">
<desc>Created with Fabric.js 4.2.0</desc>
<defs>
</defs>
<rect x="0" y="0" width="100%" height="100%" fill="transparent"></rect>
<g transform="matrix(0 0 0 0 0 0)" id="88072aa0-87c2-4562-82fa-67ca7466b19d"  >
</g>
<g transform="matrix(1 0 0 1 600 150)" id="707ea5f9-2501-43dc-be41-eb7486e5c2d5"  >
<rect style="stroke: none; stroke-width: 1; stroke-dasharray: none; stroke-linecap: butt; stroke-dashoffset: 0; stroke-linejoin: miter; stroke-miterlimit: 4; fill: rgb(255,255,255); fill-opacity: 0; fill-rule: nonzero; opacity: 1;" vector-effect="non-scaling-stroke"  x="-600" y="-150" rx="0" ry="0" width="1200" height="300" />
</g>
<g transform="matrix(3.51 0 0 3.46 711.09 157.55)" style="" id="f16c8526-bbdd-40bd-a4f0-20b51ade53fa"  >
		<text xml:space="preserve" font-family="Poppins" font-size="73" font-style="normal" font-weight="900" style="stroke: none; stroke-width: 1; stroke-dasharray: none; stroke-linecap: butt; stroke-dashoffset: 0; stroke-linejoin: miter; stroke-miterlimit: 4; fill: rgb(0,0,0); fill-rule: nonzero; opacity: 1; white-space: pre;" ><tspan x="-111.53" y="22.93" >GitKut</tspan></text>
</g>
<g transform="matrix(7.09 0 0 7.09 163.46 150)" id="80fcc495-bd5c-4e7b-8926-f5b1b3bc8d94"  >
<path style="stroke: rgb(0,0,0); stroke-width: 0; stroke-dasharray: none; stroke-linecap: butt; stroke-dashoffset: 0; stroke-linejoin: miter; stroke-miterlimit: 4; fill: rgb(0,0,0); fill-rule: nonzero; opacity: 1;" vector-effect="non-scaling-stroke"  transform=" translate(-24, -24)" d="M 24 4 C 12.972066 4 4 12.972074 4 24 C 4 35.027926 12.972066 44 24 44 C 35.027934 44 44 35.027926 44 24 C 44 12.972074 35.027934 4 24 4 z M 24 7 C 33.406615 7 41 14.593391 41 24 C 41 31.66536 35.956939 38.122519 29 40.251953 L 29 35.136719 C 29 33.226635 27.899316 31.588619 26.308594 30.773438 C 29.446643116975988 30.173086013619507 32.02980352186036 28.39833587415117 33.245622476469734 26.007380022016406 C 34.46144143107911 23.616424169881647 34.16051863818666 20.903064172831087 32.4375 18.720702999999997 C 32.881044 17.355414 33.376523 14.960672 32.199219 13.076172 C 29.929345 13.076172 28.464667 14.632086 27.765625 15.599609 C 26.570612367543692 15.207031444493492 25.29183786024699 15.003409282556053 23.999999999999996 15 C 22.707329854830608 15.001145848703876 21.427198723938695 15.202783097201653 20.230469 15.59375 C 19.529731 14.625773 18.066226 13.076172 15.800781 13.076172 C 14.449711 15.238817 15.28492 17.564557 15.732422 18.513672 C 13.892032249553587 20.687680710614487 13.502285478434127 23.445762267212906 14.689559771015116 25.89358966185726 C 15.876834063596105 28.341417056501612 18.48997030217142 30.167342482460608 21.681641 30.779297 C 20.3755 31.452483 19.397283 32.674042 19.097656 34.15625 L 17.783203 34.15625 C 16.486203 34.15625 15.98225 33.629234 15.28125 32.740234 C 14.58925 31.851234 13.845172 31.253859 12.951172 31.005859 C 12.469172 30.954859 12.144453 31.321484 12.564453 31.646484 C 13.983453 32.612484 14.081391 34.193516 14.650391 35.228516 C 15.168391 36.160516 16.229687 37 17.429688 37 L 19 37 L 19 40.251953 C 12.043061 38.122519 7 31.66536 7 24 C 7 14.593391 14.593385 7 24 7 z" stroke-linecap="round" />
</g>
</svg>